<?xml version="1.0" encoding="UTF-8"?>
<svg id="canvas" viewBox="451.700 266.623 316.302 141.120" xmlns="http://www.w3.org/2000/svg"><path d="M 462.70,289.77 C 462.06 291.24, 461.82 293.43, 461.57 297.30 C 461.32 301.16, 461.48 303.71, 461.45 309.11 C 461.42 314.51, 461.52 318.13, 461.39 324.28 C 461.27 330.43, 461.29 333.51, 460.83 339.84 C 460.36 346.17, 459.88 349.86, 459.07 355.91 C 458.26 361.97, 457.66 365.40, 456.79 370.09 C 455.92 374.79, 454.92 376.88, 454.74 379.38 C 454.56 381.89, 455.00 382.65, 455.88 382.62 C 456.75 382.58, 457.85 381.82, 459.10 379.22 C 460.35 376.62, 460.48 373.97, 462.14 369.62 C 463.80 365.27, 464.87 362.18, 467.39 357.49 C 469.92 352.79, 471.47 350.26, 474.75 346.13 C 478.04 342.01, 479.99 340.02, 483.84 336.86 C 487.69 333.70, 489.98 332.21, 494.01 330.35 C 498.04 328.49, 500.18 327.89, 504.00 327.56 C 507.82 327.23, 509.73 327.54, 513.12 328.68 C 516.51 329.82, 518.30 330.77, 520.94 333.25 C 523.58 335.74, 524.83 337.36, 526.31 341.11 C 527.79 344.86, 528.33 347.40, 528.33 352.00 C 528.32 356.61, 528.03 359.27, 526.30 364.15 C 524.57 369.02, 522.94 371.75, 519.66 376.38 C 516.37 381.01, 514.07 383.48, 509.87 387.29 C 505.66 391.10, 503.17 392.84, 498.64 395.43 C 494.11 398.02, 491.44 399.07, 487.21 400.25 C 482.98 401.44, 480.69 401.53, 477.49 401.35 C 474.30 401.18, 473.03 400.67, 471.24 399.38 C 469.46 398.09, 469.01 397.19, 468.55 394.89 C 468.09 392.60, 468.00 391.05, 468.95 387.89 C 469.89 384.73, 471.13 382.40, 473.28 379.10 C 475.44 375.80, 477.39 373.98, 479.72 371.39 C 482.06 368.81, 483.24 367.89, 484.95 366.17 C 486.66 364.46, 487.78 363.74, 488.28 362.80 C 488.77 361.87, 488.57 361.39, 487.44 361.49 C 486.31 361.59, 484.79 361.89, 482.63 363.31 C 480.47 364.72, 479.19 365.84, 476.65 368.56 C 474.10 371.29, 472.23 373.28, 469.91 376.93 C 467.60 380.57, 466.13 383.00, 465.08 386.78 C 464.03 390.55, 463.85 392.70, 464.66 395.81 C 465.47 398.92, 466.61 400.55, 469.15 402.33 C 471.68 404.11, 473.57 404.58, 477.34 404.72 C 481.12 404.85, 483.51 404.43, 488.03 403.03 C 492.55 401.62, 495.24 400.45, 499.94 397.68 C 504.65 394.90, 507.20 393.11, 511.55 389.15 C 515.91 385.18, 518.27 382.67, 521.73 377.86 C 525.19 373.04, 526.93 370.24, 528.84 365.07 C 530.75 359.91, 531.18 357.05, 531.27 352.03 C 531.35 347.01, 530.89 344.20, 529.27 339.96 C 527.66 335.73, 526.23 333.73, 523.20 330.86 C 520.18 327.99, 518.04 326.87, 514.14 325.60 C 510.24 324.33, 507.98 324.07, 503.71 324.50 C 499.44 324.93, 497.11 325.69, 492.79 327.75 C 488.47 329.80, 486.15 331.44, 482.12 334.77 C 478.08 338.10, 476.12 340.18, 472.63 344.41 C 469.14 348.64, 467.47 351.19, 464.65 355.94 C 461.84 360.68, 460.47 363.77, 458.54 368.15 C 456.62 372.53, 455.65 374.99, 455.04 377.84 C 454.44 380.69, 454.95 381.95, 455.52 382.39 C 456.09 382.84, 457.08 382.41, 457.91 380.05 C 458.75 377.68, 458.98 375.35, 459.69 370.58 C 460.40 365.81, 460.78 362.32, 461.48 356.21 C 462.18 350.10, 462.68 346.39, 463.18 340.02 C 463.68 333.65, 463.74 330.53, 463.99 324.36 C 464.25 318.19, 464.27 314.55, 464.44 309.17 C 464.61 303.78, 464.78 301.28, 464.85 297.43 C 464.91 293.58, 465.20 291.44, 464.77 289.91 C 464.34 288.38, 463.34 288.29, 462.70 289.77" style="stroke: black; fill: black;"/><path d="M 578.40,344.66 C 577.94 343.74, 577.08 342.92, 575.26 341.99 C 573.44 341.06, 572.14 340.36, 569.29 340.02 C 566.44 339.67, 564.46 339.62, 561.01 340.27 C 557.57 340.92, 555.58 341.74, 552.06 343.27 C 548.54 344.80, 546.57 345.59, 543.40 347.92 C 540.22 350.24, 538.58 351.84, 536.18 354.90 C 533.78 357.97, 532.67 359.78, 531.41 363.23 C 530.16 366.67, 529.65 368.75, 529.92 372.13 C 530.18 375.52, 530.84 377.34, 532.74 380.16 C 534.63 382.97, 536.16 384.46, 539.38 386.21 C 542.60 387.96, 544.84 388.36, 548.83 388.93 C 552.82 389.49, 555.17 389.54, 559.33 389.03 C 563.50 388.53, 565.79 388.01, 569.65 386.41 C 573.51 384.80, 575.57 383.50, 578.64 381.01 C 581.71 378.51, 583.07 377.02, 585.00 373.94 C 586.94 370.87, 587.75 369.00, 588.30 365.62 C 588.84 362.24, 588.52 360.20, 587.73 357.04 C 586.94 353.88, 586.19 352.31, 584.36 349.81 C 582.52 347.32, 580.94 346.08, 578.57 344.56 C 576.20 343.04, 574.44 342.62, 572.49 342.20 C 570.55 341.77, 569.85 342.27, 568.82 342.44 C 567.80 342.60, 567.71 342.73, 567.39 343.02 C 567.07 343.32, 567.05 343.53, 567.23 343.91 C 567.42 344.30, 567.57 344.42, 568.32 344.94 C 569.07 345.47, 569.48 345.76, 570.98 346.53 C 572.48 347.31, 573.90 347.60, 575.83 348.84 C 577.75 350.07, 579.08 350.82, 580.60 352.70 C 582.12 354.57, 582.72 355.73, 583.44 358.19 C 584.16 360.66, 584.55 362.28, 584.21 365.03 C 583.87 367.77, 583.31 369.30, 581.73 371.93 C 580.15 374.56, 579.00 375.94, 576.31 378.18 C 573.62 380.41, 571.75 381.65, 568.28 383.10 C 564.80 384.54, 562.69 385.00, 558.92 385.41 C 555.14 385.81, 552.92 385.66, 549.40 385.11 C 545.87 384.57, 543.96 384.13, 541.31 382.67 C 538.67 381.22, 537.63 380.02, 536.16 377.85 C 534.70 375.68, 534.21 374.47, 534.00 371.82 C 533.80 369.16, 534.11 367.48, 535.15 364.57 C 536.19 361.67, 537.11 359.97, 539.21 357.27 C 541.31 354.57, 542.78 353.10, 545.67 351.08 C 548.55 349.06, 550.42 348.36, 553.64 347.17 C 556.85 345.97, 558.74 345.43, 561.75 345.10 C 564.76 344.77, 566.26 345.27, 568.69 345.50 C 571.12 345.73, 572.14 346.04, 573.91 346.25 C 575.68 346.47, 576.66 346.88, 577.56 346.56 C 578.46 346.24, 578.86 345.57, 578.40 344.66" style="stroke: black; fill: black;"/><path d="M 629.25,270.04 C 628.77 270.45, 628.70 270.40, 628.34 271.82 C 627.99 273.24, 627.50 274.25, 627.48 277.15 C 627.47 280.05, 628.09 282.03, 628.28 286.32 C 628.47 290.60, 628.51 293.11, 628.45 298.55 C 628.39 304.00, 628.22 307.31, 627.97 313.56 C 627.72 319.81, 627.47 323.34, 627.21 329.78 C 626.95 336.22, 626.84 339.47, 626.67 345.76 C 626.50 352.05, 626.45 355.61, 626.35 361.24 C 626.25 366.87, 626.12 369.72, 626.17 373.91 C 626.23 378.09, 626.17 379.88, 626.62 382.14 C 627.07 384.39, 627.59 384.66, 628.42 385.19 C 629.26 385.72, 630.19 385.39, 630.79 384.78 C 631.39 384.17, 631.86 382.72, 631.43 382.15 C 630.99 381.58, 629.14 381.54, 628.63 381.92 C 628.12 382.31, 628.69 383.56, 628.88 384.07 C 629.06 384.58, 629.33 384.95, 629.55 384.49 C 629.78 384.03, 630.04 383.89, 630.00 381.75 C 629.95 379.62, 629.53 377.90, 629.30 373.80 C 629.08 369.70, 628.94 366.84, 628.87 361.24 C 628.80 355.65, 628.83 352.08, 628.96 345.81 C 629.09 339.54, 629.21 336.31, 629.51 329.88 C 629.82 323.46, 630.10 319.93, 630.48 313.69 C 630.86 307.44, 631.07 304.13, 631.42 298.67 C 631.77 293.21, 631.88 290.68, 632.22 286.38 C 632.57 282.08, 633.13 280.11, 633.13 277.16 C 633.13 274.22, 632.73 273.12, 632.25 271.65 C 631.76 270.17, 631.32 270.11, 630.72 269.79 C 630.12 269.47, 629.72 269.64, 629.25 270.04" style="stroke: black; fill: black;"/><path d="M 603.26,341.64 C 603.94 342.11, 604.47 342.17, 606.26 342.23 C 608.05 342.29, 609.37 342.26, 612.21 341.95 C 615.05 341.63, 616.76 341.09, 620.47 340.64 C 624.19 340.20, 626.58 340.03, 630.79 339.71 C 635.01 339.40, 637.31 339.38, 641.55 339.06 C 645.79 338.74, 648.00 338.50, 652.00 338.12 C 655.99 337.75, 658.03 337.71, 661.53 337.18 C 665.03 336.64, 666.85 336.38, 669.49 335.45 C 672.13 334.53, 673.18 333.70, 674.72 332.56 C 676.26 331.43, 676.87 330.57, 677.20 329.76 C 677.52 328.95, 677.16 328.56, 676.35 328.52 C 675.54 328.48, 674.81 329.04, 673.16 329.57 C 671.50 330.10, 670.55 330.43, 668.09 331.18 C 665.62 331.93, 664.13 332.64, 660.84 333.32 C 657.55 334.01, 655.53 334.16, 651.63 334.61 C 647.72 335.06, 645.51 335.31, 641.31 335.58 C 637.10 335.85, 634.83 335.85, 630.60 335.97 C 626.37 336.09, 623.97 336.10, 620.16 336.18 C 616.35 336.26, 614.50 336.02, 611.56 336.37 C 608.63 336.72, 607.23 337.25, 605.49 337.95 C 603.74 338.65, 603.29 339.15, 602.84 339.88 C 602.39 340.62, 602.57 341.17, 603.26 341.64" style="stroke: black; fill: black;"/><path d="M 680.53,273.89 C 680.10 274.63, 680.26 275.27, 680.22 277.08 C 680.18 278.90, 680.06 279.99, 680.33 282.97 C 680.60 285.96, 681.23 287.81, 681.58 292.01 C 681.94 296.21, 681.99 298.80, 682.11 303.95 C 682.22 309.10, 682.19 312.06, 682.17 317.76 C 682.16 323.47, 682.09 326.68, 682.04 332.49 C 681.99 338.31, 681.84 341.49, 681.94 346.84 C 682.03 352.19, 682.04 354.90, 682.52 359.26 C 683.00 363.61, 683.13 365.74, 684.33 368.60 C 685.53 371.46, 686.53 372.48, 688.54 373.57 C 690.54 374.67, 691.93 374.81, 694.34 374.08 C 696.75 373.34, 698.12 372.11, 700.59 369.89 C 703.06 367.67, 704.02 365.83, 706.70 362.97 C 709.39 360.11, 710.97 358.36, 714.02 355.58 C 717.06 352.80, 718.83 351.28, 721.94 349.08 C 725.05 346.88, 726.80 345.82, 729.58 344.59 C 732.37 343.36, 733.61 343.01, 735.86 342.94 C 738.10 342.86, 738.97 343.12, 740.80 344.22 C 742.63 345.31, 743.42 346.25, 745.01 348.41 C 746.60 350.57, 747.37 351.95, 748.76 355.02 C 750.16 358.09, 750.83 360.10, 751.98 363.77 C 753.13 367.43, 753.62 369.59, 754.52 373.34 C 755.41 377.10, 755.70 379.02, 756.46 382.54 C 757.23 386.07, 757.41 388.12, 758.32 390.96 C 759.24 393.80, 759.99 394.95, 761.04 396.76 C 762.08 398.56, 762.74 399.47, 763.53 399.99 C 764.31 400.51, 764.79 400.28, 764.96 399.37 C 765.12 398.46, 764.80 397.38, 764.34 395.44 C 763.88 393.49, 763.47 392.39, 762.66 389.63 C 761.86 386.87, 761.20 385.06, 760.31 381.63 C 759.42 378.19, 759.11 376.26, 758.20 372.46 C 757.28 368.66, 756.85 366.46, 755.74 362.63 C 754.63 358.81, 754.07 356.72, 752.65 353.33 C 751.23 349.94, 750.61 348.21, 748.64 345.67 C 746.67 343.12, 745.38 341.96, 742.80 340.61 C 740.23 339.26, 738.71 338.85, 735.74 338.92 C 732.78 338.99, 731.17 339.55, 727.98 340.98 C 724.79 342.41, 723.08 343.70, 719.79 346.06 C 716.50 348.42, 714.74 349.99, 711.53 352.79 C 708.32 355.58, 706.56 357.31, 703.73 360.03 C 700.89 362.76, 699.51 364.29, 697.34 366.41 C 695.17 368.53, 694.33 369.70, 692.85 370.64 C 691.38 371.59, 690.98 371.82, 689.98 371.14 C 688.98 370.45, 688.75 369.68, 687.87 367.22 C 686.99 364.76, 686.23 362.94, 685.59 358.85 C 684.94 354.76, 684.82 352.03, 684.62 346.76 C 684.43 341.50, 684.56 338.31, 684.61 332.52 C 684.66 326.72, 684.75 323.51, 684.87 317.79 C 684.98 312.08, 685.08 309.14, 685.20 303.95 C 685.32 298.77, 685.43 296.15, 685.48 291.87 C 685.52 287.59, 685.65 285.64, 685.43 282.56 C 685.21 279.47, 684.98 278.27, 684.37 276.44 C 683.76 274.60, 683.15 273.90, 682.38 273.40 C 681.61 272.89, 680.96 273.15, 680.53 273.89" style="stroke: black; fill: black;"/></svg>