<?xml version="1.0" encoding="UTF-8"?>
<svg id="canvas" viewBox="189.551 281.170 851.523 112.167" xmlns="http://www.w3.org/2000/svg"><path d="M 203.85,284.48 C 203.48 284.89, 203.34 285.39, 203.15 286.53 C 202.97 287.66, 202.95 288.43, 202.94 290.14 C 202.93 291.85, 203.07 292.81, 203.10 295.09 C 203.13 297.36, 203.14 298.70, 203.08 301.50 C 203.02 304.31, 203.00 305.84, 202.80 309.10 C 202.60 312.36, 202.46 314.20, 202.07 317.80 C 201.69 321.40, 201.41 323.23, 200.89 327.11 C 200.37 331.00, 200.04 333.07, 199.47 337.23 C 198.90 341.39, 198.64 343.70, 198.04 347.92 C 197.44 352.14, 197.06 354.28, 196.46 358.33 C 195.86 362.37, 195.57 364.46, 195.02 368.15 C 194.47 371.83, 194.19 373.68, 193.72 376.75 C 193.25 379.82, 192.90 381.19, 192.69 383.51 C 192.47 385.82, 192.56 387.02, 192.63 388.33 C 192.70 389.64, 192.85 389.70, 193.04 390.06 C 193.24 390.42, 193.34 390.42, 193.60 390.11 C 193.86 389.80, 194.00 389.77, 194.35 388.51 C 194.69 387.26, 194.96 386.14, 195.34 383.85 C 195.71 381.57, 195.85 380.17, 196.22 377.09 C 196.60 374.01, 196.75 372.14, 197.20 368.44 C 197.66 364.75, 197.92 362.67, 198.49 358.62 C 199.06 354.57, 199.44 352.43, 200.04 348.21 C 200.65 343.99, 200.92 341.68, 201.52 337.52 C 202.13 333.36, 202.47 331.31, 203.06 327.42 C 203.66 323.54, 203.98 321.71, 204.48 318.09 C 204.97 314.47, 205.17 312.63, 205.54 309.34 C 205.92 306.05, 206.15 304.51, 206.35 301.65 C 206.54 298.79, 206.53 297.38, 206.51 295.05 C 206.49 292.72, 206.38 291.73, 206.23 290.01 C 206.08 288.29, 206.01 287.57, 205.76 286.46 C 205.52 285.35, 205.40 284.86, 205.02 284.46 C 204.64 284.07, 204.23 284.07, 203.85 284.48" style="stroke: black; fill: black;"/><path d="M 231.55,289.17 C 231.18 289.68, 231.13 290.25, 230.84 291.75 C 230.55 293.25, 230.34 294.21, 230.11 296.67 C 229.88 299.13, 229.86 300.78, 229.69 304.05 C 229.53 307.31, 229.54 309.22, 229.30 312.99 C 229.06 316.77, 228.76 318.84, 228.48 322.93 C 228.20 327.02, 228.07 329.22, 227.89 333.43 C 227.71 337.65, 227.60 339.85, 227.58 344.01 C 227.57 348.17, 227.63 350.41, 227.81 354.23 C 227.98 358.06, 228.07 359.92, 228.45 363.15 C 228.82 366.39, 229.07 367.92, 229.69 370.41 C 230.30 372.90, 230.74 373.95, 231.53 375.61 C 232.31 377.27, 232.82 377.84, 233.61 378.70 C 234.40 379.56, 234.93 379.70, 235.48 379.89 C 236.04 380.08, 236.21 379.78, 236.40 379.64 C 236.59 379.51, 236.48 379.37, 236.44 379.21 C 236.40 379.05, 236.43 379.22, 236.20 378.86 C 235.97 378.50, 235.80 378.26, 235.30 377.42 C 234.80 376.58, 234.33 376.18, 233.72 374.65 C 233.11 373.12, 232.80 372.15, 232.24 369.78 C 231.67 367.42, 231.32 365.97, 230.87 362.84 C 230.42 359.71, 230.23 357.88, 229.98 354.11 C 229.74 350.35, 229.65 348.13, 229.64 344.01 C 229.63 339.89, 229.74 337.71, 229.94 333.52 C 230.14 329.34, 230.29 327.16, 230.65 323.10 C 231.01 319.04, 231.34 316.97, 231.75 313.21 C 232.16 309.44, 232.36 307.54, 232.72 304.29 C 233.07 301.03, 233.39 299.40, 233.53 296.92 C 233.66 294.43, 233.55 293.40, 233.38 291.85 C 233.21 290.30, 233.05 289.70, 232.68 289.17 C 232.31 288.63, 231.91 288.65, 231.55 289.17" style="stroke: black; fill: black;"/><path d="M 211.20,350.53 C 212.03 350.82, 213.08 350.98, 215.23 350.80 C 217.38 350.62, 218.69 350.36, 221.94 349.64 C 225.18 348.92, 227.76 348.20, 231.46 347.20 C 235.16 346.21, 237.47 345.71, 240.45 344.67 C 243.44 343.63, 245.27 342.74, 246.39 341.99 C 247.51 341.24, 247.38 340.89, 246.05 340.93 C 244.72 340.98, 242.80 341.51, 239.74 342.21 C 236.68 342.92, 234.46 343.55, 230.76 344.44 C 227.06 345.33, 224.44 345.89, 221.25 346.66 C 218.05 347.43, 216.83 347.73, 214.80 348.27 C 212.76 348.81, 211.79 348.90, 211.07 349.35 C 210.35 349.80, 210.36 350.24, 211.20 350.53" style="stroke: black; fill: black;"/><path d="M 367.71,336.99 C 367.45 336.50, 367.01 336.09, 366.00 335.68 C 364.98 335.27, 364.29 334.97, 362.63 334.94 C 360.98 334.92, 359.86 334.94, 357.73 335.57 C 355.60 336.19, 354.34 336.64, 351.97 338.07 C 349.59 339.49, 348.28 340.55, 345.85 342.68 C 343.42 344.81, 342.07 346.07, 339.83 348.72 C 337.60 351.37, 336.40 352.91, 334.67 355.91 C 332.93 358.92, 331.99 360.73, 331.15 363.75 C 330.31 366.77, 330.22 368.32, 330.45 371.01 C 330.68 373.69, 331.03 375.05, 332.30 377.19 C 333.58 379.34, 334.55 380.38, 336.81 381.74 C 339.07 383.10, 340.60 383.62, 343.61 384.01 C 346.62 384.40, 348.39 384.22, 351.86 383.69 C 355.33 383.17, 357.60 382.45, 360.97 381.38 C 364.33 380.32, 366.13 379.58, 368.67 378.36 C 371.20 377.14, 372.73 376.11, 373.63 375.30 C 374.53 374.49, 374.38 374.17, 373.18 374.30 C 371.99 374.42, 370.27 375.02, 367.66 375.92 C 365.05 376.81, 363.38 377.76, 360.14 378.77 C 356.90 379.78, 354.69 380.51, 351.46 380.98 C 348.22 381.45, 346.63 381.42, 343.97 381.11 C 341.31 380.80, 340.05 380.45, 338.15 379.41 C 336.24 378.38, 335.46 377.65, 334.44 375.93 C 333.42 374.21, 333.17 373.10, 333.04 370.82 C 332.90 368.53, 332.99 367.21, 333.77 364.49 C 334.55 361.77, 335.31 360.03, 336.93 357.22 C 338.55 354.42, 339.69 352.93, 341.86 350.47 C 344.03 348.02, 345.41 346.86, 347.76 344.95 C 350.12 343.04, 351.46 342.18, 353.64 340.94 C 355.83 339.70, 356.87 339.32, 358.69 338.76 C 360.50 338.20, 361.37 338.27, 362.73 338.15 C 364.09 338.04, 364.56 338.18, 365.47 338.18 C 366.39 338.18, 366.85 338.37, 367.30 338.13 C 367.75 337.89, 367.97 337.48, 367.71 336.99" style="stroke: black; fill: black;"/><path d="M 405.91,340.80 C 405.66 340.35, 405.25 340.01, 404.34 339.76 C 403.44 339.51, 402.83 339.21, 401.38 339.53 C 399.93 339.85, 398.81 340.21, 397.11 341.36 C 395.41 342.50, 394.60 343.35, 392.86 345.26 C 391.12 347.17, 390.06 348.37, 388.41 350.89 C 386.76 353.41, 385.82 355.06, 384.62 357.84 C 383.42 360.63, 382.91 362.16, 382.41 364.82 C 381.92 367.48, 381.84 368.85, 382.16 371.13 C 382.48 373.42, 382.88 374.60, 384.01 376.25 C 385.15 377.90, 386.06 378.57, 387.83 379.38 C 389.60 380.20, 390.74 380.33, 392.86 380.34 C 394.98 380.34, 396.18 380.15, 398.45 379.39 C 400.73 378.62, 402.08 378.02, 404.23 376.50 C 406.39 374.98, 407.44 373.85, 409.23 371.78 C 411.03 369.71, 411.82 368.47, 413.22 366.14 C 414.62 363.80, 415.39 362.52, 416.23 360.11 C 417.06 357.71, 417.26 356.37, 417.41 354.11 C 417.56 351.84, 417.38 350.76, 416.96 348.80 C 416.54 346.84, 416.19 345.83, 415.32 344.32 C 414.46 342.80, 413.72 342.00, 412.64 341.22 C 411.55 340.43, 410.75 340.28, 409.90 340.39 C 409.04 340.50, 408.50 340.97, 408.36 341.75 C 408.22 342.53, 408.35 343.31, 409.18 344.28 C 410.01 345.24, 410.87 345.91, 412.53 346.57 C 414.19 347.24, 415.35 347.39, 417.48 347.60 C 419.60 347.81, 420.84 347.73, 423.17 347.62 C 425.49 347.51, 426.79 347.42, 429.08 347.05 C 431.37 346.68, 432.62 346.38, 434.63 345.79 C 436.64 345.20, 437.77 344.71, 439.13 344.12 C 440.49 343.52, 441.00 343.01, 441.42 342.80 C 441.84 342.60, 441.65 342.48, 441.25 343.08 C 440.84 343.69, 440.31 344.21, 439.41 345.81 C 438.51 347.42, 437.75 348.71, 436.75 351.10 C 435.75 353.49, 435.17 355.08, 434.40 357.76 C 433.63 360.44, 433.22 361.97, 432.90 364.50 C 432.59 367.02, 432.50 368.34, 432.84 370.38 C 433.17 372.42, 433.55 373.40, 434.56 374.71 C 435.58 376.03, 436.34 376.48, 437.92 376.96 C 439.49 377.43, 440.48 377.46, 442.44 377.08 C 444.40 376.71, 445.59 376.26, 447.71 375.10 C 449.83 373.94, 450.96 373.02, 453.06 371.27 C 455.17 369.52, 456.19 368.46, 458.24 366.36 C 460.28 364.26, 461.40 362.97, 463.30 360.77 C 465.21 358.56, 466.20 357.39, 467.78 355.34 C 469.35 353.29, 470.26 352.11, 471.16 350.53 C 472.07 348.95, 472.18 348.05, 472.32 347.44 C 472.46 346.83, 472.17 346.85, 471.87 347.47 C 471.57 348.10, 471.14 348.84, 470.80 350.58 C 470.46 352.33, 470.24 353.76, 470.17 356.21 C 470.09 358.65, 470.20 360.25, 470.43 362.81 C 470.66 365.37, 470.74 366.77, 471.33 369.01 C 471.92 371.24, 472.35 372.35, 473.38 373.99 C 474.40 375.63, 474.99 376.35, 476.47 377.22 C 477.95 378.10, 478.85 378.40, 480.77 378.36 C 482.69 378.32, 483.89 378.06, 486.07 377.04 C 488.26 376.02, 489.49 375.28, 491.69 373.24 C 493.89 371.20, 494.94 369.70, 497.08 366.84 C 499.22 363.99, 500.36 362.38, 502.40 358.95 C 504.43 355.53, 505.45 353.51, 507.26 349.72 C 509.06 345.93, 509.89 343.94, 511.42 339.99 C 512.95 336.05, 513.71 333.96, 514.92 330.01 C 516.14 326.07, 516.69 323.93, 517.50 320.25 C 518.30 316.58, 518.60 314.75, 518.95 311.64 C 519.30 308.53, 519.36 307.03, 519.23 304.69 C 519.10 302.35, 518.93 301.32, 518.29 299.93 C 517.64 298.55, 517.10 298.03, 516.01 297.77 C 514.91 297.51, 514.13 297.59, 512.81 298.61 C 511.49 299.64, 510.64 300.64, 509.41 302.90 C 508.18 305.16, 507.68 306.69, 506.65 309.91 C 505.63 313.14, 505.10 315.09, 504.28 319.03 C 503.47 322.97, 503.07 325.30, 502.56 329.62 C 502.04 333.95, 501.80 336.28, 501.70 340.64 C 501.60 345.01, 501.65 347.29, 502.06 351.45 C 502.47 355.60, 502.85 357.79, 503.77 361.42 C 504.69 365.05, 505.21 366.71, 506.64 369.61 C 508.07 372.51, 508.94 373.86, 510.92 375.92 C 512.90 377.97, 514.15 378.79, 516.54 379.87 C 518.94 380.95, 520.27 381.20, 522.87 381.31 C 525.48 381.43, 526.97 381.23, 529.57 380.46 C 532.17 379.68, 533.53 378.93, 535.88 377.44 C 538.22 375.95, 539.35 374.89, 541.29 373.01 C 543.24 371.14, 544.10 370.05, 545.59 368.08 C 547.08 366.10, 547.78 365.03, 548.74 363.15 C 549.71 361.26, 550.09 360.29, 550.42 358.65 C 550.74 357.00, 550.69 356.17, 550.39 354.93 C 550.09 353.69, 549.67 353.05, 548.92 352.47 C 548.17 351.88, 547.17 351.89, 546.64 352.02 C 546.11 352.15, 546.07 352.75, 546.28 353.12 C 546.48 353.49, 547.26 353.44, 547.65 353.88 C 548.03 354.32, 548.14 354.47, 548.20 355.31 C 548.26 356.14, 548.32 356.74, 547.93 358.05 C 547.55 359.35, 547.21 360.17, 546.28 361.82 C 545.34 363.46, 544.66 364.48, 543.25 366.28 C 541.83 368.08, 541.00 369.11, 539.20 370.83 C 537.39 372.55, 536.33 373.51, 534.23 374.87 C 532.13 376.24, 530.95 376.92, 528.69 377.67 C 526.44 378.41, 525.18 378.62, 522.96 378.58 C 520.74 378.55, 519.64 378.39, 517.60 377.50 C 515.57 376.60, 514.54 375.90, 512.78 374.10 C 511.02 372.31, 510.17 371.17, 508.79 368.52 C 507.41 365.87, 506.82 364.32, 505.88 360.87 C 504.94 357.41, 504.52 355.27, 504.08 351.24 C 503.65 347.20, 503.59 344.96, 503.70 340.69 C 503.81 336.42, 504.07 334.12, 504.65 329.89 C 505.23 325.67, 505.65 323.36, 506.61 319.56 C 507.57 315.76, 508.28 313.92, 509.46 310.90 C 510.63 307.88, 511.44 306.59, 512.47 304.47 C 513.50 302.35, 513.95 301.38, 514.60 300.29 C 515.25 299.20, 515.37 298.98, 515.73 299.04 C 516.09 299.09, 516.22 299.40, 516.40 300.55 C 516.59 301.70, 516.66 302.60, 516.66 304.77 C 516.66 306.93, 516.68 308.38, 516.42 311.39 C 516.15 314.40, 516.02 316.20, 515.32 319.81 C 514.63 323.41, 514.11 325.53, 512.95 329.42 C 511.79 333.31, 511.05 335.38, 509.53 339.26 C 508.01 343.13, 507.18 345.10, 505.36 348.80 C 503.54 352.50, 502.50 354.47, 500.43 357.75 C 498.36 361.03, 497.18 362.59, 495.01 365.21 C 492.83 367.84, 491.62 369.07, 489.56 370.89 C 487.50 372.72, 486.50 373.35, 484.71 374.33 C 482.91 375.31, 482.01 375.60, 480.59 375.79 C 479.18 375.98, 478.63 375.89, 477.63 375.28 C 476.63 374.67, 476.28 374.11, 475.60 372.73 C 474.92 371.35, 474.57 370.39, 474.23 368.37 C 473.89 366.35, 473.91 365.05, 473.90 362.64 C 473.88 360.23, 474.11 358.69, 474.17 356.31 C 474.22 353.93, 474.33 352.56, 474.16 350.74 C 473.99 348.93, 473.85 348.09, 473.31 347.25 C 472.77 346.40, 472.34 346.18, 471.46 346.51 C 470.58 346.85, 470.15 347.53, 468.92 348.92 C 467.70 350.30, 466.94 351.47, 465.36 353.44 C 463.77 355.40, 462.85 356.61, 460.98 358.75 C 459.11 360.90, 458.01 362.16, 456.01 364.16 C 454.01 366.16, 452.97 367.13, 450.99 368.75 C 449.01 370.37, 447.94 371.15, 446.09 372.25 C 444.24 373.35, 443.27 373.77, 441.74 374.27 C 440.21 374.76, 439.53 374.90, 438.45 374.73 C 437.37 374.56, 436.93 374.37, 436.33 373.44 C 435.72 372.51, 435.52 371.78, 435.44 370.09 C 435.36 368.40, 435.47 367.24, 435.93 364.99 C 436.39 362.73, 436.85 361.31, 437.73 358.83 C 438.62 356.35, 439.39 354.93, 440.35 352.59 C 441.31 350.24, 442.00 348.96, 442.53 347.10 C 443.06 345.24, 443.19 344.44, 443.00 343.30 C 442.81 342.16, 442.52 341.77, 441.59 341.40 C 440.65 341.03, 439.89 341.18, 438.33 341.45 C 436.78 341.73, 435.76 342.31, 433.81 342.80 C 431.87 343.29, 430.76 343.61, 428.61 343.92 C 426.45 344.22, 425.20 344.27, 423.05 344.32 C 420.90 344.37, 419.71 344.38, 417.86 344.15 C 416.00 343.92, 415.15 343.61, 413.77 343.16 C 412.39 342.72, 411.82 342.26, 410.97 341.93 C 410.12 341.61, 409.79 341.54, 409.51 341.55 C 409.24 341.56, 409.30 341.65, 409.58 341.99 C 409.86 342.32, 410.23 342.47, 410.90 343.21 C 411.57 343.95, 412.23 344.45, 412.91 345.68 C 413.60 346.91, 413.97 347.71, 414.32 349.36 C 414.67 351.00, 414.82 351.95, 414.65 353.90 C 414.48 355.85, 414.28 356.99, 413.47 359.11 C 412.66 361.24, 411.93 362.42, 410.61 364.54 C 409.29 366.67, 408.52 367.85, 406.88 369.73 C 405.24 371.61, 404.30 372.58, 402.41 373.93 C 400.52 375.28, 399.35 375.76, 397.43 376.47 C 395.50 377.18, 394.49 377.37, 392.77 377.49 C 391.05 377.61, 390.17 377.58, 388.82 377.06 C 387.47 376.54, 386.84 376.15, 386.02 374.90 C 385.21 373.66, 384.91 372.74, 384.75 370.84 C 384.60 368.94, 384.71 367.76, 385.26 365.41 C 385.81 363.07, 386.30 361.66, 387.48 359.12 C 388.67 356.59, 389.59 355.04, 391.17 352.73 C 392.75 350.42, 393.80 349.28, 395.38 347.56 C 396.95 345.84, 397.67 345.13, 399.05 344.13 C 400.42 343.13, 401.24 342.94, 402.26 342.54 C 403.27 342.14, 403.46 342.25, 404.12 342.14 C 404.78 342.03, 405.19 342.26, 405.55 341.99 C 405.91 341.73, 406.15 341.25, 405.91 340.80" style="stroke: black; fill: black;"/><path d="M 556.14,353.72 C 556.82 353.60, 557.62 353.15, 558.58 352.22 C 559.54 351.30, 560.13 350.51, 560.94 349.09 C 561.75 347.67, 562.24 346.74, 562.62 345.11 C 563.01 343.48, 563.02 342.50, 562.88 340.94 C 562.74 339.37, 562.61 338.62, 561.91 337.29 C 561.20 335.97, 560.65 335.20, 559.36 334.31 C 558.07 333.43, 557.20 333.07, 555.46 332.88 C 553.72 332.69, 552.72 332.74, 550.65 333.38 C 548.58 334.03, 547.33 334.56, 545.09 336.11 C 542.85 337.66, 541.65 338.80, 539.45 341.12 C 537.25 343.44, 536.05 344.95, 534.09 347.70 C 532.13 350.45, 531.11 352.05, 529.66 354.86 C 528.22 357.67, 527.63 359.14, 526.88 361.75 C 526.12 364.35, 525.86 365.71, 525.89 367.89 C 525.91 370.07, 526.12 371.15, 526.98 372.65 C 527.85 374.15, 528.68 374.78, 530.21 375.39 C 531.74 376.01, 532.71 376.15, 534.62 375.72 C 536.53 375.29, 537.68 374.82, 539.76 373.26 C 541.85 371.70, 542.94 370.45, 545.03 367.92 C 547.12 365.39, 548.10 363.87, 550.22 360.61 C 552.33 357.35, 553.52 355.45, 555.60 351.63 C 557.67 347.82, 558.70 345.62, 560.59 341.52 C 562.47 337.42, 563.40 335.20, 565.03 331.13 C 566.66 327.05, 567.45 324.88, 568.72 321.15 C 570.00 317.42, 570.67 315.53, 571.41 312.49 C 572.16 309.46, 572.40 307.82, 572.45 305.99 C 572.50 304.16, 572.21 303.54, 571.68 303.35 C 571.14 303.15, 570.52 303.48, 569.76 305.01 C 569.01 306.54, 568.53 307.91, 567.90 310.99 C 567.28 314.08, 567.13 316.36, 566.65 320.42 C 566.18 324.48, 565.88 326.87, 565.54 331.30 C 565.19 335.73, 564.98 338.19, 564.92 342.58 C 564.86 346.97, 564.85 349.24, 565.23 353.23 C 565.61 357.22, 565.89 359.22, 566.82 362.54 C 567.75 365.85, 568.33 367.42, 569.89 369.82 C 571.46 372.22, 572.44 373.18, 574.65 374.52 C 576.86 375.86, 578.25 376.18, 580.93 376.52 C 583.61 376.85, 585.16 376.77, 588.04 376.20 C 590.92 375.63, 592.73 374.86, 595.35 373.65 C 597.96 372.45, 599.28 371.48, 601.13 370.19 C 602.99 368.89, 604.04 367.95, 604.63 367.17 C 605.22 366.38, 605.03 366.10, 604.07 366.25 C 603.12 366.40, 601.87 367.05, 599.86 367.93 C 597.85 368.81, 596.52 369.59, 594.02 370.64 C 591.52 371.68, 589.93 372.51, 587.37 373.15 C 584.80 373.78, 583.48 373.95, 581.19 373.81 C 578.90 373.67, 577.74 373.50, 575.90 372.43 C 574.06 371.36, 573.36 370.56, 571.99 368.45 C 570.62 366.35, 569.97 364.98, 569.03 361.89 C 568.10 358.80, 567.72 356.88, 567.30 353.02 C 566.88 349.17, 566.85 346.92, 566.92 342.61 C 567.00 338.31, 567.21 335.86, 567.66 331.49 C 568.12 327.13, 568.52 324.77, 569.22 320.80 C 569.92 316.82, 570.63 314.66, 571.18 311.62 C 571.73 308.57, 571.88 307.20, 571.95 305.58 C 572.02 303.95, 571.85 303.49, 571.53 303.50 C 571.21 303.51, 570.86 303.96, 570.33 305.64 C 569.81 307.31, 569.62 308.91, 568.89 311.88 C 568.16 314.85, 567.84 316.79, 566.70 320.49 C 565.56 324.20, 564.78 326.36, 563.20 330.40 C 561.62 334.44, 560.69 336.65, 558.80 340.69 C 556.91 344.73, 555.87 346.90, 553.75 350.61 C 551.64 354.32, 550.41 356.18, 548.22 359.26 C 546.03 362.34, 544.90 363.71, 542.82 366.01 C 540.74 368.31, 539.60 369.31, 537.82 370.75 C 536.03 372.18, 535.26 372.66, 533.89 373.18 C 532.52 373.70, 531.96 373.64, 530.97 373.33 C 529.97 373.01, 529.43 372.69, 528.92 371.61 C 528.41 370.54, 528.28 369.77, 528.42 367.96 C 528.55 366.15, 528.83 364.93, 529.58 362.57 C 530.33 360.20, 530.80 358.79, 532.15 356.14 C 533.51 353.50, 534.47 351.92, 536.37 349.34 C 538.26 346.76, 539.51 345.36, 541.63 343.25 C 543.75 341.14, 544.97 340.20, 546.96 338.80 C 548.96 337.40, 549.98 336.87, 551.63 336.24 C 553.28 335.61, 553.99 335.58, 555.23 335.64 C 556.48 335.70, 556.99 335.96, 557.86 336.53 C 558.73 337.11, 559.13 337.58, 559.57 338.49 C 560.01 339.40, 560.09 339.92, 560.07 341.07 C 560.06 342.22, 559.92 342.96, 559.50 344.24 C 559.08 345.53, 558.62 346.23, 557.98 347.48 C 557.34 348.73, 556.85 349.41, 556.29 350.49 C 555.74 351.56, 555.22 352.20, 555.19 352.85 C 555.16 353.50, 555.46 353.85, 556.14 353.72" style="stroke: black; fill: black;"/><path d="M 685.67,300.85 C 685.25 301.49, 685.07 302.36, 684.77 304.14 C 684.48 305.91, 684.34 307.03, 684.21 309.72 C 684.08 312.41, 684.16 314.27, 684.11 317.57 C 684.05 320.88, 684.12 322.64, 683.93 326.24 C 683.75 329.84, 683.56 331.83, 683.19 335.58 C 682.81 339.32, 682.53 341.35, 682.05 344.95 C 681.57 348.55, 681.26 350.39, 680.79 353.57 C 680.32 356.74, 679.91 358.35, 679.69 360.82 C 679.48 363.29, 679.48 364.43, 679.72 365.91 C 679.96 367.40, 680.22 367.84, 680.90 368.24 C 681.58 368.64, 682.08 368.55, 683.11 367.92 C 684.14 367.29, 684.78 366.62, 686.07 365.08 C 687.35 363.54, 688.03 362.34, 689.54 360.23 C 691.05 358.12, 691.80 356.74, 693.62 354.53 C 695.43 352.33, 696.46 351.16, 698.60 349.22 C 700.73 347.29, 702.04 346.37, 704.31 344.87 C 706.58 343.37, 707.76 342.64, 709.95 341.70 C 712.15 340.76, 713.29 340.45, 715.27 340.17 C 717.26 339.89, 718.29 339.95, 719.86 340.29 C 721.43 340.63, 722.10 340.96, 723.14 341.88 C 724.18 342.79, 724.60 343.39, 725.06 344.85 C 725.52 346.31, 725.54 347.29, 725.44 349.17 C 725.34 351.06, 725.20 352.22, 724.56 354.28 C 723.92 356.33, 723.51 357.46, 722.23 359.45 C 720.96 361.44, 720.04 362.46, 718.17 364.22 C 716.30 365.98, 715.20 366.90, 712.89 368.27 C 710.57 369.63, 709.17 370.21, 706.59 371.06 C 704.00 371.90, 702.47 372.17, 699.95 372.49 C 697.44 372.80, 696.13 372.79, 694.03 372.62 C 691.93 372.45, 690.85 372.21, 689.47 371.65 C 688.10 371.09, 687.65 370.67, 687.16 369.82 C 686.67 368.97, 686.70 368.40, 687.03 367.40 C 687.36 366.40, 687.62 365.85, 688.80 364.80 C 689.99 363.75, 690.88 363.22, 692.96 362.16 C 695.04 361.10, 696.34 360.50, 699.20 359.52 C 702.06 358.53, 703.70 358.05, 707.26 357.25 C 710.81 356.45, 712.92 356.19, 716.96 355.52 C 721.01 354.85, 723.25 354.55, 727.48 353.91 C 731.71 353.27, 733.88 352.97, 738.12 352.32 C 742.37 351.66, 744.71 351.38, 748.70 350.63 C 752.70 349.88, 754.73 349.46, 758.10 348.57 C 761.46 347.68, 762.97 347.25, 765.51 346.19 C 768.05 345.13, 769.19 344.55, 770.80 343.25 C 772.41 341.95, 772.98 341.10, 773.56 339.69 C 774.14 338.27, 774.18 337.48, 773.70 336.18 C 773.22 334.87, 772.58 334.07, 771.15 333.17 C 769.73 332.28, 768.65 331.91, 766.57 331.70 C 764.50 331.49, 763.13 331.59, 760.77 332.11 C 758.42 332.63, 757.10 333.11, 754.79 334.31 C 752.48 335.51, 751.27 336.33, 749.23 338.11 C 747.19 339.89, 746.02 340.99, 744.59 343.21 C 743.15 345.43, 742.59 346.77, 742.04 349.20 C 741.48 351.64, 741.33 353.00, 741.82 355.39 C 742.32 357.77, 742.96 359.08, 744.52 361.12 C 746.08 363.16, 747.14 364.18, 749.62 365.59 C 752.10 367.00, 753.64 367.55, 756.91 368.18 C 760.18 368.81, 762.53 368.75, 765.96 368.73 C 769.38 368.71, 771.26 368.59, 774.03 368.08 C 776.79 367.58, 778.66 366.80, 779.76 366.20 C 780.87 365.60, 780.76 365.24, 779.55 365.07 C 778.34 364.91, 776.42 365.22, 773.70 365.38 C 770.98 365.55, 769.20 365.88, 765.95 365.88 C 762.70 365.88, 760.43 365.93, 757.45 365.36 C 754.46 364.80, 753.19 364.25, 751.05 363.06 C 748.90 361.87, 748.04 361.05, 746.72 359.40 C 745.40 357.76, 744.85 356.75, 744.45 354.84 C 744.06 352.93, 744.21 351.85, 744.74 349.86 C 745.26 347.86, 745.76 346.75, 747.06 344.87 C 748.37 342.99, 749.42 342.02, 751.26 340.47 C 753.09 338.92, 754.19 338.16, 756.24 337.13 C 758.28 336.10, 759.45 335.76, 761.48 335.33 C 763.50 334.89, 764.66 334.89, 766.35 334.94 C 768.03 334.99, 768.81 335.17, 769.92 335.58 C 771.03 335.98, 771.52 336.31, 771.88 336.96 C 772.25 337.61, 772.24 337.95, 771.74 338.83 C 771.24 339.71, 770.82 340.36, 769.38 341.35 C 767.93 342.34, 766.89 342.78, 764.50 343.78 C 762.12 344.78, 760.71 345.37, 757.47 346.33 C 754.23 347.29, 752.23 347.78, 748.30 348.58 C 744.37 349.38, 742.04 349.68, 737.81 350.34 C 733.59 351.00, 731.42 351.29, 727.18 351.89 C 722.95 352.49, 720.71 352.76, 716.63 353.35 C 712.54 353.93, 710.43 354.15, 706.76 354.82 C 703.10 355.48, 701.37 355.79, 698.31 356.69 C 695.24 357.58, 693.77 358.05, 691.46 359.28 C 689.15 360.50, 688.10 361.28, 686.76 362.80 C 685.42 364.31, 685.06 365.25, 684.76 366.86 C 684.47 368.47, 684.56 369.43, 685.28 370.83 C 686.01 372.24, 686.71 372.95, 688.40 373.87 C 690.09 374.79, 691.34 375.11, 693.73 375.43 C 696.11 375.75, 697.54 375.76, 700.30 375.46 C 703.06 375.15, 704.70 374.84, 707.52 373.92 C 710.34 373.01, 711.87 372.37, 714.42 370.87 C 716.97 369.38, 718.19 368.40, 720.27 366.45 C 722.35 364.50, 723.36 363.36, 724.82 361.11 C 726.27 358.86, 726.80 357.57, 727.53 355.20 C 728.27 352.83, 728.48 351.51, 728.49 349.25 C 728.50 347.00, 728.35 345.78, 727.60 343.93 C 726.85 342.08, 726.19 341.23, 724.76 340.00 C 723.33 338.78, 722.42 338.31, 720.46 337.80 C 718.49 337.29, 717.26 337.22, 714.94 337.47 C 712.62 337.73, 711.32 338.10, 708.87 339.08 C 706.42 340.06, 705.13 340.80, 702.68 342.39 C 700.23 343.97, 698.93 345.00, 696.63 347.01 C 694.33 349.01, 693.20 350.21, 691.18 352.42 C 689.16 354.62, 688.14 355.90, 686.53 358.02 C 684.93 360.14, 684.16 361.33, 683.16 363.03 C 682.17 364.73, 681.90 365.60, 681.55 366.52 C 681.19 367.45, 681.34 367.78, 681.40 367.65 C 681.45 367.53, 681.61 367.20, 681.82 365.89 C 682.03 364.58, 682.14 363.51, 682.45 361.12 C 682.75 358.72, 682.97 357.09, 683.35 353.91 C 683.74 350.74, 683.96 348.87, 684.39 345.25 C 684.82 341.63, 685.10 339.59, 685.51 335.82 C 685.91 332.05, 686.13 330.03, 686.44 326.41 C 686.75 322.79, 686.81 321.02, 687.06 317.70 C 687.30 314.39, 687.58 312.54, 687.65 309.84 C 687.71 307.15, 687.54 306.02, 687.38 304.24 C 687.22 302.45, 687.21 301.60, 686.86 300.92 C 686.52 300.24, 686.09 300.20, 685.67 300.85" style="stroke: black; fill: black;"/><path d="M 872.58,296.47 C 872.19 297.05, 872.12 297.76, 871.80 299.38 C 871.49 301.01, 871.25 302.15, 871.00 304.60 C 870.74 307.06, 870.70 308.63, 870.53 311.64 C 870.36 314.66, 870.41 316.36, 870.15 319.67 C 869.90 322.98, 869.62 324.82, 869.26 328.18 C 868.91 331.54, 868.71 333.30, 868.38 336.46 C 868.05 339.62, 867.80 341.28, 867.64 343.97 C 867.47 346.66, 867.38 347.96, 867.57 349.90 C 867.77 351.84, 867.96 352.67, 868.62 353.68 C 869.28 354.69, 869.77 354.93, 870.89 354.94 C 872.02 354.95, 872.80 354.71, 874.25 353.74 C 875.70 352.77, 876.52 351.84, 878.14 350.10 C 879.76 348.35, 880.58 346.97, 882.35 345.04 C 884.12 343.10, 885.12 342.07, 886.99 340.41 C 888.86 338.75, 889.86 337.96, 891.71 336.75 C 893.56 335.54, 894.55 334.97, 896.24 334.36 C 897.94 333.74, 898.79 333.66, 900.20 333.67 C 901.61 333.68, 902.21 333.81, 903.31 334.39 C 904.40 334.97, 904.86 335.43, 905.68 336.58 C 906.50 337.73, 906.87 338.58, 907.41 340.14 C 907.94 341.70, 908.21 342.63, 908.36 344.40 C 908.51 346.16, 908.48 347.19, 908.16 348.96 C 907.84 350.74, 907.63 351.63, 906.78 353.27 C 905.92 354.90, 905.34 355.70, 903.90 357.13 C 902.45 358.57, 901.52 359.25, 899.55 360.44 C 897.59 361.63, 896.37 362.26, 894.08 363.08 C 891.79 363.90, 890.44 364.20, 888.10 364.54 C 885.76 364.88, 884.47 364.90, 882.38 364.77 C 880.29 364.63, 879.24 364.42, 877.66 363.87 C 876.09 363.31, 875.44 362.85, 874.49 361.99 C 873.54 361.13, 873.30 360.64, 872.91 359.58 C 872.51 358.51, 872.85 357.26, 872.51 356.67 C 872.17 356.08, 871.58 355.93, 871.21 356.64 C 870.83 357.35, 870.33 358.79, 870.64 360.22 C 870.95 361.65, 871.55 362.56, 872.76 363.79 C 873.98 365.01, 874.83 365.59, 876.70 366.36 C 878.58 367.14, 879.78 367.41, 882.14 367.65 C 884.50 367.90, 885.90 367.90, 888.50 367.57 C 891.10 367.25, 892.60 366.94, 895.14 366.04 C 897.67 365.14, 899.01 364.44, 901.18 363.07 C 903.35 361.71, 904.37 360.89, 906.00 359.20 C 907.63 357.50, 908.31 356.53, 909.32 354.60 C 910.34 352.67, 910.65 351.61, 911.07 349.53 C 911.50 347.44, 911.60 346.24, 911.45 344.16 C 911.30 342.07, 911.03 340.94, 910.31 339.08 C 909.60 337.22, 909.05 336.22, 907.87 334.85 C 906.70 333.47, 905.94 332.93, 904.41 332.19 C 902.89 331.46, 902.08 331.25, 900.27 331.16 C 898.46 331.08, 897.40 331.16, 895.38 331.78 C 893.37 332.41, 892.26 333.05, 890.17 334.29 C 888.09 335.54, 887.05 336.35, 884.97 338.00 C 882.89 339.66, 881.72 340.65, 879.79 342.58 C 877.86 344.50, 876.83 345.82, 875.33 347.61 C 873.83 349.40, 873.22 350.36, 872.28 351.53 C 871.33 352.69, 871.05 353.13, 870.61 353.43 C 870.18 353.73, 870.20 353.75, 870.10 353.03 C 870.01 352.31, 870.04 351.60, 870.12 349.83 C 870.21 348.05, 870.34 346.79, 870.53 344.16 C 870.72 341.54, 870.80 339.85, 871.06 336.71 C 871.33 333.57, 871.49 331.82, 871.85 328.46 C 872.22 325.11, 872.53 323.24, 872.90 319.93 C 873.28 316.62, 873.44 314.91, 873.74 311.90 C 874.05 308.89, 874.29 307.35, 874.43 304.88 C 874.58 302.41, 874.59 301.21, 874.46 299.53 C 874.32 297.85, 874.13 297.10, 873.75 296.49 C 873.38 295.88, 872.97 295.89, 872.58 296.47" style="stroke: black; fill: black;"/><path d="M 937.01,341.04 C 936.72 340.65, 936.46 340.23, 935.43 340.11 C 934.39 339.98, 933.42 339.89, 931.84 340.41 C 930.27 340.92, 929.32 341.41, 927.56 342.67 C 925.79 343.93, 924.73 344.84, 923.03 346.71 C 921.33 348.58, 920.33 349.83, 919.06 352.03 C 917.79 354.22, 917.16 355.49, 916.68 357.69 C 916.20 359.88, 916.20 361.11, 916.68 363.00 C 917.16 364.89, 917.70 365.84, 919.08 367.15 C 920.46 368.45, 921.52 369.02, 923.60 369.53 C 925.69 370.03, 927.03 370.02, 929.50 369.66 C 931.98 369.31, 933.47 368.80, 935.98 367.73 C 938.48 366.66, 939.78 365.87, 942.03 364.30 C 944.27 362.73, 945.40 361.76, 947.19 359.87 C 948.98 357.98, 949.86 356.90, 950.96 354.84 C 952.06 352.78, 952.43 351.58, 952.69 349.56 C 952.94 347.55, 952.82 346.43, 952.24 344.75 C 951.66 343.07, 951.03 342.29, 949.81 341.17 C 948.58 340.06, 947.66 339.67, 946.12 339.16 C 944.58 338.65, 943.50 338.56, 942.11 338.64 C 940.73 338.72, 940.10 339.14, 939.21 339.55 C 938.32 339.97, 937.91 340.32, 937.66 340.73 C 937.41 341.15, 937.54 341.45, 937.96 341.65 C 938.38 341.85, 938.91 341.73, 939.75 341.73 C 940.58 341.73, 941.04 341.58, 942.15 341.63 C 943.26 341.68, 944.09 341.69, 945.29 341.98 C 946.49 342.28, 947.22 342.41, 948.14 343.12 C 949.06 343.83, 949.49 344.32, 949.88 345.53 C 950.26 346.74, 950.34 347.59, 950.07 349.18 C 949.80 350.77, 949.51 351.76, 948.50 353.48 C 947.50 355.20, 946.70 356.15, 945.06 357.80 C 943.41 359.45, 942.33 360.33, 940.26 361.72 C 938.19 363.11, 936.96 363.78, 934.70 364.74 C 932.45 365.70, 931.09 366.12, 928.98 366.52 C 926.87 366.93, 925.80 367.01, 924.15 366.77 C 922.50 366.53, 921.74 366.18, 920.73 365.32 C 919.71 364.46, 919.34 363.84, 919.07 362.46 C 918.81 361.07, 918.86 360.15, 919.42 358.40 C 919.97 356.66, 920.61 355.61, 921.84 353.74 C 923.08 351.88, 924.03 350.72, 925.58 349.08 C 927.14 347.44, 928.12 346.63, 929.62 345.53 C 931.12 344.43, 931.87 344.17, 933.08 343.59 C 934.30 343.02, 934.92 342.96, 935.68 342.65 C 936.44 342.35, 936.61 342.39, 936.88 342.07 C 937.14 341.74, 937.30 341.43, 937.01 341.04" style="stroke: black; fill: black;"/><path d="M 977.75,300.53 C 977.42 300.93, 977.42 301.22, 977.18 302.46 C 976.94 303.70, 976.76 304.50, 976.55 306.73 C 976.34 308.95, 976.36 310.52, 976.14 313.57 C 975.92 316.63, 975.88 318.35, 975.45 322.00 C 975.02 325.65, 974.57 327.91, 973.99 331.83 C 973.42 335.75, 973.14 337.82, 972.56 341.61 C 971.98 345.41, 971.63 347.40, 971.09 350.81 C 970.55 354.22, 970.22 355.92, 969.85 358.66 C 969.48 361.39, 969.31 362.67, 969.25 364.49 C 969.19 366.31, 969.38 366.87, 969.54 367.75 C 969.70 368.63, 969.84 368.66, 970.03 368.89 C 970.23 369.11, 970.33 369.09, 970.51 368.87 C 970.69 368.65, 970.70 368.63, 970.93 367.81 C 971.15 366.99, 971.31 366.52, 971.65 364.76 C 971.99 363.00, 972.27 361.75, 972.63 359.03 C 972.99 356.31, 973.03 354.57, 973.47 351.15 C 973.90 347.73, 974.23 345.74, 974.79 341.95 C 975.36 338.16, 975.63 336.10, 976.28 332.19 C 976.92 328.27, 977.40 326.03, 978.02 322.37 C 978.64 318.71, 978.96 316.99, 979.37 313.90 C 979.77 310.81, 980.00 309.22, 980.05 306.93 C 980.10 304.63, 979.88 303.74, 979.62 302.44 C 979.37 301.15, 979.16 300.84, 978.79 300.46 C 978.41 300.07, 978.07 300.13, 977.75 300.53" style="stroke: black; fill: black;"/><path d="M 962.03,341.87 C 962.56 342.10, 963.09 342.04, 964.37 341.94 C 965.64 341.83, 966.54 341.71, 968.39 341.35 C 970.24 341.00, 971.29 340.71, 973.62 340.18 C 975.95 339.65, 977.45 339.41, 980.03 338.70 C 982.62 337.98, 983.94 337.51, 986.54 336.61 C 989.14 335.70, 990.54 335.26, 993.02 334.17 C 995.50 333.08, 996.72 332.47, 998.93 331.17 C 1001.14 329.86, 1002.21 329.20, 1004.07 327.65 C 1005.93 326.10, 1006.84 325.26, 1008.24 323.44 C 1009.64 321.61, 1010.26 320.52, 1011.07 318.52 C 1011.89 316.51, 1012.09 315.38, 1012.32 313.40 C 1012.54 311.43, 1012.48 310.31, 1012.19 308.65 C 1011.90 306.99, 1011.64 306.18, 1010.86 305.12 C 1010.07 304.05, 1009.39 303.55, 1008.27 303.32 C 1007.15 303.09, 1006.37 303.19, 1005.26 303.95 C 1004.15 304.72, 1003.64 305.48, 1002.74 307.13 C 1001.84 308.78, 1001.42 309.80, 1000.75 312.19 C 1000.09 314.58, 999.88 316.14, 999.41 319.08 C 998.93 322.02, 998.77 323.65, 998.37 326.87 C 997.98 330.09, 997.81 331.90, 997.42 335.19 C 997.03 338.48, 996.73 340.27, 996.44 343.33 C 996.14 346.40, 995.92 347.97, 995.93 350.53 C 995.95 353.08, 996.09 354.34, 996.53 356.11 C 996.97 357.87, 997.22 358.41, 998.12 359.35 C 999.03 360.28, 999.73 360.69, 1001.07 360.80 C 1002.40 360.91, 1003.29 360.64, 1004.82 359.88 C 1006.35 359.12, 1007.11 358.35, 1008.71 357.00 C 1010.30 355.64, 1011.08 354.69, 1012.81 353.12 C 1014.54 351.55, 1015.56 350.61, 1017.37 349.13 C 1019.17 347.66, 1020.20 346.88, 1021.83 345.76 C 1023.46 344.64, 1024.33 344.14, 1025.52 343.55 C 1026.71 342.95, 1027.15 342.71, 1027.80 342.79 C 1028.46 342.87, 1028.50 343.12, 1028.80 343.94 C 1029.10 344.75, 1029.17 345.42, 1029.30 346.88 C 1029.42 348.35, 1029.31 349.29, 1029.42 351.25 C 1029.52 353.21, 1029.57 354.48, 1029.82 356.68 C 1030.06 358.88, 1030.13 360.18, 1030.65 362.25 C 1031.18 364.31, 1031.59 365.36, 1032.45 367.01 C 1033.32 368.65, 1034.01 369.47, 1034.98 370.47 C 1035.95 371.46, 1036.71 371.82, 1037.32 371.99 C 1037.94 372.15, 1038.15 371.87, 1038.05 371.29 C 1037.95 370.71, 1037.42 370.19, 1036.82 369.09 C 1036.23 367.98, 1035.70 367.27, 1035.06 365.76 C 1034.43 364.26, 1034.04 363.44, 1033.66 361.56 C 1033.28 359.68, 1033.34 358.47, 1033.18 356.36 C 1033.02 354.25, 1033.03 353.02, 1032.87 351.02 C 1032.71 349.02, 1032.79 348.00, 1032.37 346.34 C 1031.95 344.69, 1031.59 343.83, 1030.76 342.76 C 1029.92 341.69, 1029.40 341.29, 1028.18 340.97 C 1026.96 340.66, 1026.23 340.75, 1024.64 341.19 C 1023.05 341.64, 1022.08 342.13, 1020.22 343.20 C 1018.36 344.27, 1017.28 345.08, 1015.34 346.55 C 1013.40 348.03, 1012.30 349.00, 1010.52 350.57 C 1008.74 352.15, 1007.90 353.10, 1006.45 354.45 C 1004.99 355.80, 1004.34 356.48, 1003.25 357.34 C 1002.16 358.19, 1001.76 358.57, 1001.00 358.74 C 1000.25 358.91, 999.90 358.79, 999.46 358.18 C 999.03 357.58, 998.97 357.23, 998.84 355.70 C 998.71 354.18, 998.71 352.98, 998.79 350.56 C 998.87 348.14, 998.96 346.60, 999.22 343.59 C 999.48 340.58, 999.70 338.77, 1000.09 335.51 C 1000.48 332.24, 1000.68 330.43, 1001.18 327.26 C 1001.68 324.10, 1002.02 322.50, 1002.60 319.67 C 1003.19 316.84, 1003.50 315.35, 1004.10 313.11 C 1004.70 310.87, 1005.06 309.95, 1005.62 308.47 C 1006.17 306.99, 1006.42 306.37, 1006.87 305.70 C 1007.32 305.02, 1007.45 304.98, 1007.85 305.11 C 1008.25 305.23, 1008.54 305.53, 1008.86 306.31 C 1009.18 307.10, 1009.33 307.67, 1009.45 309.02 C 1009.57 310.37, 1009.65 311.38, 1009.45 313.07 C 1009.25 314.76, 1009.14 315.73, 1008.45 317.46 C 1007.76 319.19, 1007.24 320.12, 1006.00 321.72 C 1004.77 323.32, 1003.98 324.09, 1002.28 325.48 C 1000.58 326.86, 999.57 327.48, 997.48 328.66 C 995.40 329.85, 994.23 330.42, 991.84 331.42 C 989.46 332.41, 988.08 332.83, 985.55 333.65 C 983.02 334.47, 981.74 334.88, 979.20 335.50 C 976.66 336.13, 975.17 336.25, 972.85 336.76 C 970.54 337.27, 969.45 337.54, 967.61 338.06 C 965.78 338.57, 964.88 338.81, 963.69 339.35 C 962.51 339.89, 962.02 340.25, 961.69 340.75 C 961.36 341.26, 961.49 341.63, 962.03 341.87" style="stroke: black; fill: black;"/></svg>